<?xml version="1.0" encoding="UTF-8" standalone="no"?>
<!-- Created with Inkscape (http://www.inkscape.org/) -->

<svg
   xmlns:dc="http://purl.org/dc/elements/1.1/"
   xmlns:cc="http://creativecommons.org/ns#"
   xmlns:rdf="http://www.w3.org/1999/02/22-rdf-syntax-ns#"
   xmlns:svg="http://www.w3.org/2000/svg"
   xmlns="http://www.w3.org/2000/svg"
   xmlns:sodipodi="http://sodipodi.sourceforge.net/DTD/sodipodi-0.dtd"
   xmlns:inkscape="http://www.inkscape.org/namespaces/inkscape"
   width="860.78741"
   height="484.19528"
   viewBox="0 0 227.75 128.11"
   version="1.1"
   id="svg3803"
   inkscape:version="0.92.4 (33fec40, 2019-01-16)"
   sodipodi:docname="adrianRosalesSVG.svg">
  <defs
     id="defs3797" />
  <sodipodi:namedview
     id="base"
     pagecolor="#ffffff"
     bordercolor="#666666"
     borderopacity="1.0"
     inkscape:pageopacity="0.0"
     inkscape:pageshadow="2"
     inkscape:zoom="0.35"
     inkscape:cx="-854.28571"
     inkscape:cy="560"
     inkscape:document-units="mm"
     inkscape:current-layer="layer1"
     showgrid="false"
     inkscape:lockguides="false"
     units="px"
     inkscape:window-width="1280"
     inkscape:window-height="996"
     inkscape:window-x="1920"
     inkscape:window-y="0"
     inkscape:window-maximized="1" />
  <metadata
     id="metadata3800">
    <rdf:RDF>
      <cc:Work
         rdf:about="">
        <dc:format>image/svg+xml</dc:format>
        <dc:type
           rdf:resource="http://purl.org/dc/dcmitype/StillImage" />
        <dc:title></dc:title>
      </cc:Work>
    </rdf:RDF>
  </metadata>
  <g
     inkscape:label="Layer 1"
     inkscape:groupmode="layer"
     id="layer1"
     >
    <g
       aria-label="Adrian Rosales"
       transform="scale(0.78596987,1.2723134) "
       style="font-style:normal;font-variant:normal;font-weight:normal;font-stretch:normal;font-size:57.80289459px;line-height:1.25;font-family:'Metal Gear Solid 2';-inkscape-font-specification:'Metal Gear Solid 2, ';letter-spacing:0px;word-spacing:0px;fill:#000000;fill-opacity:1;stroke:none;stroke-width:0.60211343"
       id="text3807">
      <path
         d="m 3.5166123,218.74834 h 6.4350879 l 1.3829798,-13.80157 5.870606,-0.0564 1.016067,13.85802 h 7.366482 L 20.055917,168.14258 H 9.04853 Z M 16.386788,198.51168 h -4.261834 l 2.060357,-20.37778 z"
         style="font-size:57.80289459px;stroke-width:0.60211343"
         id="path3809" />
      <path
         d="m 27.902208,168.11436 h 5.673038 q 5.503693,0 7.42293,0.87494 1.947461,0.87495 2.935303,2.87886 1.016067,2.00391 1.270083,4.4594 0.254017,2.45549 0.254017,9.65263 v 17.72472 q 0,6.83022 -0.366913,9.11637 -0.366913,2.28615 -1.298307,3.58446 -0.90317,1.29831 -2.257926,1.83456 -1.354755,0.50804 -4.064266,0.50804 h -9.567959 z m 7.056017,6.49153 v 37.65091 q 2.624839,0 3.217544,-1.27008 0.62093,-1.29831 0.62093,-7.0278 v -22.24056 q 0,-3.89492 -0.197569,-4.99566 -0.197568,-1.10074 -0.931394,-1.60877 -0.733826,-0.50804 -2.709511,-0.50804 z"
         style="font-size:57.80289459px;stroke-width:0.60211343"
         id="path3811" />
      <path
         d="m 47.771953,218.74834 h 7.366482 v -23.00262 q 2.709511,-0.1129 3.612681,0.42336 0.90317,0.53626 0.987842,2.25793 v 5.67303 q 0.05645,5.67304 0.225793,7.39471 0.169344,1.72167 0.338689,3.66913 0.169344,1.94746 0.536257,2.76596 0.366913,0.8185 1.100739,0.8185 h 6.068175 q 0.620929,0 0.423361,-0.28224 -0.197569,-0.31047 -0.338689,-1.12897 -0.112896,-0.84672 -0.338689,-1.94746 -0.197568,-1.10074 -0.282241,-1.55232 -0.08467,-0.47981 -0.197568,-1.4112 -0.08467,-0.9314 -0.169344,-2.31438 v -0.76205 -0.73382 -10.6687 -2.20148 q -0.197569,-0.93139 -0.564482,-1.38298 -0.338689,-0.47981 -0.733826,-0.87495 -0.366913,-0.42336 -0.846722,-0.62093 -0.451585,-0.19756 -0.90317,-0.36691 -0.451585,-0.16934 -1.016066,-0.33869 -0.564482,-0.16934 -1.467652,-0.22579 1.749892,-0.39514 2.681287,-0.84672 0.931394,-0.45159 1.552323,-0.9314 0.62093,-0.4798 0.959619,-1.12896 0.338689,-0.64915 0.338689,-3.78202 v -6.60444 -3.13287 -0.56448 q 0,-2.20148 -0.395137,-3.1611 -0.395137,-0.95961 -0.790274,-1.55232 -0.395137,-0.62093 -0.931395,-1.07251 -0.508033,-0.45159 -1.608772,-0.67738 -1.072514,-0.25402 -2.003909,-0.28224 -0.90317,-0.0564 -4.036041,-0.0564 h -2.032134 -7.535826 z m 7.366482,-45.18674 q 1.552324,-0.0847 2.822407,0.0847 1.270083,0.14112 1.439428,1.86279 v 11.96701 q -0.08467,0.90317 -0.423361,1.35475 -0.310465,0.42336 -0.677378,0.45159 -0.366913,0.0282 -1.100739,0.0282 h -2.060357 z"
         style="font-size:57.80289459px;stroke-width:0.60211343"
         id="path3813" />
      <path
         d="m 70.689899,218.80478 h 6.435088 v -50.60575 h -6.435088 z"
         style="font-size:57.80289459px;stroke-width:0.60211343"
         id="path3815" />
      <path
         d="m 79.382907,218.74834 h 6.435088 l 1.382979,-13.80157 5.870607,-0.0564 1.016066,13.85802 h 7.366483 L 95.922212,168.14258 H 84.914825 Z m 12.870176,-20.23666 h -4.261835 l 2.060358,-20.37778 z"
         style="font-size:57.80289459px;stroke-width:0.60211343"
         id="path3817" />
      <path
         d="m 103.79673,218.80478 -0.0282,-50.63398 h 11.00739 l 4.29006,38.77988 V 168.1708 h 6.12462 l 0.0282,50.63398 -11.03561,-0.0564 -4.26184,-38.72343 v 38.77987 z"
         style="font-size:57.80289459px;stroke-width:0.60211343"
         id="path3819" />
      <path
         d="m 139.89532,218.74834 h 7.36648 v -23.00262 q 2.70951,-0.1129 3.61268,0.42336 0.90317,0.53626 0.98785,2.25793 v 5.67303 q 0.0564,5.67304 0.22579,7.39471 0.16934,1.72167 0.33869,3.66913 0.16934,1.94746 0.53625,2.76596 0.36692,0.8185 1.10074,0.8185 h 6.06818 q 0.62093,0 0.42336,-0.28224 -0.19757,-0.31047 -0.33869,-1.12897 -0.1129,-0.84672 -0.33869,-1.94746 -0.19757,-1.10074 -0.28224,-1.55232 -0.0847,-0.47981 -0.19757,-1.4112 -0.0847,-0.9314 -0.16934,-2.31438 v -0.76205 -0.73382 -10.6687 -2.20148 q -0.19757,-0.93139 -0.56448,-1.38298 -0.33869,-0.47981 -0.73383,-0.87495 -0.36691,-0.42336 -0.84672,-0.62093 -0.45159,-0.19756 -0.90317,-0.36691 -0.45159,-0.16934 -1.01607,-0.33869 -0.56448,-0.16934 -1.46765,-0.22579 1.74989,-0.39514 2.68129,-0.84672 0.93139,-0.45159 1.55232,-0.9314 0.62093,-0.4798 0.95962,-1.12896 0.33869,-0.64915 0.33869,-3.78202 v -6.60444 -3.13287 -0.56448 q 0,-2.20148 -0.39514,-3.1611 -0.39514,-0.95961 -0.79027,-1.55232 -0.39514,-0.62093 -0.9314,-1.07251 -0.50803,-0.45159 -1.60877,-0.67738 -1.07251,-0.25402 -2.00391,-0.28224 -0.90317,-0.0564 -4.03604,-0.0564 h -2.03213 -7.53583 z m 7.36648,-45.18674 q 1.55233,-0.0847 2.82241,0.0847 1.27008,0.14112 1.43943,1.86279 v 11.96701 q -0.0847,0.90317 -0.42336,1.35475 -0.31047,0.42336 -0.67738,0.45159 -0.36691,0.0282 -1.10074,0.0282 h -2.06036 z"
         style="font-size:57.80289459px;stroke-width:0.60211343"
         id="path3821" />
      <path
         d="m 164.36558,217.22424 q 1.55233,1.66522 7.45116,1.66522 5.61659,0 7.22536,-1.66522 1.60877,-1.80634 1.60877,-8.35433 v -30.76423 q 0,-6.54799 -1.55232,-8.26966 -1.55233,-1.74989 -7.39471,-1.74989 -5.78593,0 -7.33826,1.66522 -1.55232,1.66522 -1.55232,8.35433 v 30.76423 q 0,6.63266 1.55232,8.35433 z m 9.17282,-7.11247 q 0,1.18541 -0.36691,1.66522 -0.36691,0.45159 -1.32653,0.45159 -1.86279,0 -1.86279,-2.11681 v -33.1915 q 0,-2.17326 1.69345,-2.17326 1.86278,0 1.86278,2.17326 z"
         style="font-size:57.80289459px;stroke-width:0.60211343"
         id="path3823" />
      <path
         d="m 191.26312,167.66277 q -4.00782,0.33869 -5.22145,0.87495 -1.18542,0.50803 -1.97569,1.24186 -0.79027,0.7056 -1.15719,2.96352 v 8.52367 q 0.25402,5.08033 0.84673,6.63266 0.62093,1.55232 1.74989,3.0482 l 7.3947,10.21711 q 0.87495,1.69345 1.41121,2.82241 0.53626,1.12896 0.22579,6.9149 -0.16934,2.68128 -2.00391,2.51194 -1.83456,-0.16935 -2.28615,-1.49588 -0.45158,-1.32653 -0.45158,-3.83847 v -7.78984 h -0.90317 -0.53626 -0.7056 -0.53626 -4.12071 v 8.89058 q 0.45158,4.4594 1.01606,5.67304 0.56448,1.21363 2.3426,2.68128 1.80634,1.43943 6.01173,1.86279 4.23361,-0.14112 5.70126,-0.73383 1.46765,-0.5927 2.54017,-2.79418 1.10073,-2.20148 1.10073,-5.41902 v -4.51585 q 0.1129,-4.62875 -1.91923,-7.95919 l -6.99957,-9.28572 q -2.59662,-3.41511 -2.79418,-4.37473 -0.19757,-0.95962 -0.19757,-2.39904 v -4.7981 q -0.1129,-2.76595 0.76205,-3.35866 0.90317,-0.62093 1.32653,-0.67738 0.45158,-0.0565 1.63699,0.42336 1.18541,0.45159 1.07252,3.10465 v 10.35823 h 7.11246 v -12.16457 q -0.36691,-2.56839 -0.95961,-3.33044 -0.59271,-0.76205 -1.12897,-1.24186 -0.50803,-0.47981 -1.2983,-1.07251 -0.79028,-0.59271 -3.21755,-1.18541 z"
         style="font-size:57.80289459px;stroke-width:0.60211343"
         id="path3825" />
      <path
         d="m 204.0204,218.74834 h 6.43508 l 1.38298,-13.80157 5.87061,-0.0564 1.01607,13.85802 h 7.36648 l -5.53192,-50.60576 h -11.00739 z m 12.87017,-20.23666 h -4.26183 l 2.06035,-20.37778 z"
         style="font-size:57.80289459px;stroke-width:0.60211343"
         id="path3827" />
      <path
         d="m 228.406,218.77656 h 16.56753 v -6.43509 H 234.84109 V 168.14258 H 228.406 Z"
         style="font-size:57.80289459px;stroke-width:0.60211343"
         id="path3829" />
      <path
         d="m 247.25967,218.77656 h 16.59575 v -6.37864 h -9.22927 v -17.58359 h 9.22927 v -6.46332 h -9.22927 v -13.74512 h 9.22927 v -6.43509 h -16.59575 z"
         style="font-size:57.80289459px;stroke-width:0.60211343"
         id="path3831" />
      <path
         d="m 274.46768,167.66277 q -4.00782,0.33869 -5.22146,0.87495 -1.18541,0.50803 -1.97568,1.24186 -0.79027,0.7056 -1.15719,2.96352 v 8.52367 q 0.25402,5.08033 0.84673,6.63266 0.62092,1.55232 1.74989,3.0482 l 7.3947,10.21711 q 0.87495,1.69345 1.41121,2.82241 0.53625,1.12896 0.22579,6.9149 -0.16934,2.68128 -2.00391,2.51194 -1.83456,-0.16935 -2.28615,-1.49588 -0.45158,-1.32653 -0.45158,-3.83847 v -7.78984 h -0.90317 -0.53626 -0.7056 -0.53626 -4.12071 v 8.89058 q 0.45158,4.4594 1.01606,5.67304 0.56448,1.21363 2.3426,2.68128 1.80634,1.43943 6.01173,1.86279 4.23361,-0.14112 5.70126,-0.73383 1.46765,-0.5927 2.54016,-2.79418 1.10074,-2.20148 1.10074,-5.41902 v -4.51585 q 0.1129,-4.62875 -1.91923,-7.95919 l -6.99957,-9.28572 q -2.59662,-3.41511 -2.79419,-4.37473 -0.19756,-0.95962 -0.19756,-2.39904 v -4.7981 q -0.1129,-2.76595 0.76205,-3.35866 0.90317,-0.62093 1.32653,-0.67738 0.45158,-0.0565 1.63699,0.42336 1.18541,0.45159 1.07252,3.10465 v 10.35823 h 7.11246 v -12.16457 q -0.36691,-2.56839 -0.95961,-3.33044 -0.59271,-0.76205 -1.12897,-1.24186 -0.50803,-0.47981 -1.2983,-1.07251 -0.79028,-0.59271 -3.21755,-1.18541 z"
         style="font-size:57.80289459px;stroke-width:0.60211343"
         id="path3833" />
    </g>
  </g>
</svg>
